<?xml version="1.0" encoding="UTF-8" standalone="no"?>
<!-- Created with Inkscape (http://www.inkscape.org/) -->

<svg
   width="350"
   height="100"
   viewBox="0 0 92.60417 26.458333"
   version="1.1"
   id="svg5"
   inkscape:version="1.1 (c68e22c387, 2021-05-23)"
   sodipodi:docname="logo.svg"
   xmlns:inkscape="http://www.inkscape.org/namespaces/inkscape"
   xmlns:sodipodi="http://sodipodi.sourceforge.net/DTD/sodipodi-0.dtd"
   xmlns="http://www.w3.org/2000/svg"
   xmlns:svg="http://www.w3.org/2000/svg">
  <sodipodi:namedview
     id="namedview7"
     pagecolor="#505050"
     bordercolor="#eeeeee"
     borderopacity="1"
     inkscape:pageshadow="0"
     inkscape:pageopacity="0"
     inkscape:pagecheckerboard="0"
     inkscape:document-units="px"
     showgrid="false"
     width="350px"
     units="px"
     inkscape:zoom="0.74118967"
     inkscape:cx="451.30148"
     inkscape:cy="453.99985"
     inkscape:window-width="1920"
     inkscape:window-height="1017"
     inkscape:window-x="-8"
     inkscape:window-y="-8"
     inkscape:window-maximized="1"
     inkscape:current-layer="layer1" />
  <defs
     id="defs2" />
  <g
     inkscape:label="Capa 1"
     inkscape:groupmode="layer"
     id="layer1">
    <rect
       style="fill:#41ad49;fill-opacity:1;stroke-width:0.516552"
       id="rect11941-1-6"
       width="92.604164"
       height="26.458334"
       x="1.2715658e-06"
       y="-1.6312954e-07"
       ry="0"
       inkscape:export-filename="C:\Users\frosk\Documents\School\Proceso de Software en Equipo\Null Pointer\Logo.png"
       inkscape:export-xdpi="96"
       inkscape:export-ydpi="96" />
    <g
       id="g15294-0-6"
       transform="matrix(0.92471609,0,0,0.94597092,-90.72561,-92.481272)"
       inkscape:export-filename="C:\Users\frosk\Documents\School\Proceso de Software en Equipo\Null Pointer\Logo.png"
       inkscape:export-xdpi="96"
       inkscape:export-ydpi="96">
      <text
         xml:space="preserve"
         style="font-style:normal;font-variant:normal;font-weight:bold;font-stretch:normal;font-size:8.46667px;line-height:1.25;font-family:sans-serif;-inkscape-font-specification:'sans-serif Bold';fill:#ffffff;fill-opacity:1;stroke:none;stroke-width:0.264583"
         x="126.74265"
         y="108.79839"
         id="text18558-4-9-5"><tspan
           sodipodi:role="line"
           id="tspan18556-1-1-7"
           style="font-style:normal;font-variant:normal;font-weight:bold;font-stretch:normal;font-size:8.46667px;font-family:sans-serif;-inkscape-font-specification:'sans-serif Bold';fill:#ffffff;fill-opacity:1;stroke-width:0.264583"
           x="126.74265"
           y="108.79839">Food</tspan><tspan
           sodipodi:role="line"
           style="font-style:normal;font-variant:normal;font-weight:bold;font-stretch:normal;font-size:8.46667px;font-family:sans-serif;-inkscape-font-specification:'sans-serif Bold';fill:#ffffff;fill-opacity:1;stroke-width:0.264583"
           x="126.74265"
           y="119.38173"
           id="tspan6936-7-5">Management</tspan></text>
      <path
         style="fill:#ffffff;fill-opacity:1;stroke-width:0.0148453"
         d="m 115.30191,118.46425 c -0.35162,-0.0296 -0.46596,-0.0415 -0.64573,-0.0673 -1.50296,-0.21537 -2.91027,-0.90875 -4.00845,-1.97496 -1.06209,-1.03117 -1.78106,-2.34481 -2.07051,-3.78308 -0.36271,-1.80224 -0.0444,-3.65483 0.89662,-5.21826 0.30454,-0.50599 0.64792,-0.94342 1.08476,-1.38192 0.92941,-0.93293 2.01802,-1.56303 3.29148,-1.90514 0.3398,-0.0913 0.76489,-0.16631 1.19946,-0.21168 0.28444,-0.0297 1.07624,-0.0252 1.38061,0.008 1.6685,0.18101 3.15035,0.87228 4.33288,2.02126 1.06339,1.03322 1.78399,2.35765 2.07177,3.80782 0.41437,2.08803 -0.0993,4.24629 -1.40974,5.92328 -1.12728,1.4426 -2.77274,2.41322 -4.57924,2.70118 -0.35526,0.0566 -0.61001,0.0765 -1.0466,0.0816 -0.23678,0.003 -0.46057,0.003 -0.49731,-5.9e-4 z m -1.03116,-2.81957 c 0.35179,-0.0896 0.61549,-0.41728 0.61549,-0.76484 0,-0.0459 -0.0632,-0.90397 -0.14045,-1.90687 -0.0772,-1.00291 -0.13697,-1.82908 -0.13273,-1.83594 0.004,-0.007 0.0199,-0.0125 0.0349,-0.0125 0.0481,0 0.28588,-0.0739 0.44616,-0.13873 0.45007,-0.18197 0.84432,-0.52325 0.97458,-0.84364 0.0345,-0.0848 0.038,-0.112 0.0364,-0.27948 -0.005,-0.47258 -0.13855,-1.4301 -0.351,-2.50974 -0.0324,-0.16443 -0.0513,-0.30428 -0.0513,-0.37879 0,-0.13947 -0.028,-0.20516 -0.10483,-0.2464 -0.0944,-0.0506 -0.22052,-0.0203 -0.26907,0.0649 -0.0155,0.0272 -0.021,0.28543 -0.0269,1.25893 -0.007,1.20175 -0.008,1.22599 -0.0384,1.29154 -0.067,0.14467 -0.21777,0.21858 -0.41547,0.20362 -0.16389,-0.0124 -0.26954,-0.0803 -0.32849,-0.21104 -0.0249,-0.0552 -0.0273,-0.14572 -0.0342,-1.29815 l -0.007,-1.23877 -0.20084,-0.05 -0.20084,-0.05 -0.19998,0.0501 -0.19998,0.0501 -0.007,1.24609 c -0.008,1.33301 -0.005,1.28019 -0.0835,1.38347 -0.0676,0.0887 -0.14026,0.11498 -0.31729,0.11498 -0.17824,0 -0.24514,-0.0246 -0.32285,-0.1189 -0.0866,-0.10505 -0.0836,-0.0602 -0.0923,-1.38114 -0.009,-1.35425 -0.002,-1.26726 -0.10933,-1.31834 -0.0648,-0.0308 -0.11791,-0.031 -0.18132,-9.4e-4 -0.0829,0.0393 -0.10123,0.083 -0.11174,0.26593 -0.006,0.0968 -0.0372,0.30535 -0.0777,0.51217 -0.19609,1.00125 -0.31848,1.88871 -0.32349,2.34555 -0.003,0.23145 0.0133,0.28777 0.13173,0.46733 0.23026,0.34924 0.70589,0.65727 1.21398,0.7862 0.0789,0.02 0.14541,0.0384 0.14768,0.0409 0.002,0.002 -0.0584,0.81618 -0.13484,1.80821 -0.0764,0.99204 -0.13918,1.85408 -0.13942,1.91564 -2.4e-4,0.0616 0.01,0.1512 0.0223,0.1992 0.0717,0.27543 0.31379,0.5136 0.58997,0.58052 0.10788,0.0261 0.28473,0.0256 0.38995,-10e-4 z m 3.91757,-0.0342 c 0.25284,-0.11832 0.39694,-0.3843 0.35265,-0.65092 -0.0108,-0.0647 -0.0116,-0.1032 -0.002,-0.10636 0.009,-0.003 0.0145,-0.37519 0.0145,-1.02034 v -1.01538 l 0.0408,-0.009 c 0.25252,-0.0572 0.40039,-0.12484 0.52453,-0.23978 0.10234,-0.0947 0.16277,-0.18598 0.20904,-0.31565 0.0343,-0.096 0.0345,-0.10094 0.0393,-0.9501 0.007,-1.16704 -0.014,-1.50965 -0.1241,-2.05697 -0.0929,-0.46172 -0.23522,-0.88998 -0.43015,-1.29434 -0.19991,-0.41471 -0.37963,-0.68413 -0.66365,-0.99489 -0.20238,-0.22144 -0.24797,-0.24842 -0.41976,-0.24842 -0.10262,0 -0.12813,0.006 -0.18771,0.0405 -0.08,0.0471 -0.13973,0.11313 -0.17797,0.197 -0.026,0.057 -0.0271,0.218 -0.0274,3.98225 -2e-4,2.3763 0.005,3.92287 0.0133,3.92287 0.008,0 0.007,0.0223 -0.001,0.0545 -0.008,0.0299 -0.0126,0.11178 -0.01,0.18185 0.006,0.14402 0.0483,0.25591 0.1383,0.36569 0.16421,0.2004 0.47395,0.26905 0.71175,0.15777 z"
         id="path13315-21-5" />
    </g>
  </g>
</svg>
