<?xml version="1.0" encoding="UTF-8" standalone="no"?>
<!-- Created with Inkscape (http://www.inkscape.org/) -->

<svg
   width="256"
   height="256"
   viewBox="0 0 67.73333 67.733335"
   version="1.1"
   id="svg"
   inkscape:version="1.1 (c68e22c387, 2021-05-23)"
   sodipodi:docname="favicon.svg"
   xmlns:inkscape="http://www.inkscape.org/namespaces/inkscape"
   xmlns:sodipodi="http://sodipodi.sourceforge.net/DTD/sodipodi-0.dtd"
   xmlns="http://www.w3.org/2000/svg"
   xmlns:svg="http://www.w3.org/2000/svg">
  <defs
     id="defs2" />
  <g
     inkscape:label="Capa 1"
     inkscape:groupmode="layer"
     id="layer1">
    <path
       style="fill:#41ad49;fill-opacity:1;stroke-width:0.0647689"
       d="M 32.114864,65.603749 C 30.579653,65.474701 30.080434,65.422819 29.295538,65.310338 22.733452,64.371383 16.588983,61.348433 11.794209,56.700046 7.1570092,52.204424 4.0179081,46.477309 2.7541379,40.206838 1.1705066,32.34956 2.5602827,24.272766 6.6688782,17.456633 7.9985329,15.250655 9.4977672,13.343577 11.405058,11.431836 15.462964,7.3645129 20.215953,4.617447 25.776018,3.1259397 27.25962,2.7278964 29.115609,2.400873 31.012991,2.2030721 c 1.241896,-0.1294836 4.698979,-0.1098646 6.027893,0.034877 7.284853,0.7891547 13.754771,3.802905 18.917825,8.8121469 4.642877,4.50456 7.789093,10.27872 9.045573,16.601069 1.809185,9.103244 -0.433555,18.512677 -6.155079,25.823899 -4.921826,6.289346 -12.106082,10.520987 -19.99346,11.776414 -1.551103,0.246766 -2.663369,0.333521 -4.569568,0.355755 -1.033807,0.01297 -2.0109,0.01297 -2.171311,-0.0025 z M 27.612708,53.311185 c 1.535953,-0.390633 2.687297,-1.81923 2.687297,-3.334497 0,-0.200108 -0.275938,-3.941064 -0.613221,-8.313437 -0.337063,-4.372418 -0.598026,-7.974296 -0.579513,-8.004204 0.01749,-0.03051 0.08688,-0.05449 0.152375,-0.05449 0.210022,0 1.248183,-0.322183 1.947983,-0.604825 1.965056,-0.793339 3.686392,-2.281229 4.255122,-3.678041 0.150625,-0.369705 0.165918,-0.48829 0.158921,-1.218459 -0.02173,-2.06032 -0.604925,-6.234848 -1.532505,-10.941788 -0.141454,-0.716869 -0.223989,-1.326578 -0.223989,-1.651422 0,-0.608051 -0.122239,-0.894442 -0.457698,-1.074237 -0.412161,-0.220603 -0.962815,-0.0885 -1.17479,0.282946 -0.06767,0.118585 -0.09168,1.244398 -0.117442,5.488595 -0.03056,5.239306 -0.03493,5.344985 -0.167667,5.630765 -0.29253,0.630722 -0.950808,0.95295 -1.813987,0.887727 -0.715563,-0.05408 -1.176841,-0.350086 -1.434223,-0.920076 -0.108722,-0.240653 -0.119191,-0.6353 -0.149327,-5.659583 l -0.03056,-5.400703 -0.876889,-0.217985 -0.876889,-0.217985 -0.873134,0.218422 -0.873134,0.218422 -0.03056,5.432616 c -0.0349,5.811556 -0.02181,5.581275 -0.364549,6.031548 -0.295149,0.386709 -0.61239,0.501282 -1.385323,0.501282 -0.778215,0 -1.070308,-0.107239 -1.409598,-0.518371 -0.378105,-0.457991 -0.365007,-0.262456 -0.402992,-6.021399 -0.03929,-5.904163 -0.0087,-5.52491 -0.477346,-5.747606 -0.282925,-0.134279 -0.514809,-0.135151 -0.791663,-0.0041 -0.361951,0.171337 -0.441981,0.361857 -0.487869,1.159382 -0.02618,0.422022 -0.162419,1.331244 -0.339247,2.232923 -0.85615,4.365179 -1.390518,8.234266 -1.412392,10.225965 -0.0131,1.009061 0.05807,1.254599 0.575148,2.037432 1.005339,1.522594 3.081992,2.865519 5.300368,3.42762 0.344486,0.0872 0.634876,0.167423 0.644787,0.178327 0.0087,0.0087 -0.254981,3.558323 -0.588727,7.883306 -0.33357,4.325026 -0.607675,8.083288 -0.608722,8.351675 -0.001,0.268559 0.04366,0.65919 0.09736,0.868458 0.31305,1.200799 1.370041,2.239156 2.575873,2.530909 0.471016,0.113776 1.243162,0.111607 1.702564,-0.0042 z m 17.104537,-0.149108 c 1.103928,-0.515844 1.733083,-1.675444 1.539709,-2.837837 -0.04715,-0.282074 -0.05065,-0.449926 -0.0087,-0.4637 0.03931,-0.01297 0.06332,-1.635727 0.06332,-4.448407 v -4.426778 l 0.178136,-0.03925 c 1.102531,-0.249387 1.748149,-0.544272 2.290157,-1.045377 0.446826,-0.412868 0.71067,-0.810823 0.91269,-1.37615 0.14975,-0.418532 0.150625,-0.44007 0.17159,-4.14218 0.03056,-5.087977 -0.06112,-6.581665 -0.541837,-8.967833 -0.405611,-2.012973 -1.026995,-3.880071 -1.87808,-5.642972 -0.872827,-1.80801 -1.657503,-2.982609 -2.897565,-4.337439 -0.883615,-0.965418 -1.082663,-1.083044 -1.832719,-1.083044 -0.44805,0 -0.55943,0.02615 -0.819561,0.176569 -0.349289,0.205343 -0.610077,0.493216 -0.777036,0.858867 -0.113519,0.248505 -0.118316,0.950422 -0.119642,17.361534 -8.75e-4,10.360028 0.02173,17.102653 0.05807,17.102653 0.03493,0 0.03056,0.09724 -0.0042,0.237609 -0.03493,0.130345 -0.05502,0.48733 -0.04365,0.792817 0.02624,0.627889 0.210895,1.115699 0.603832,1.59431 0.71696,0.873691 2.069319,1.172986 3.107579,0.687836 z"
       id="path13315-21-5-7" />
  </g>
</svg>
